<?xml version="1.0" encoding="UTF-8" standalone="no"?>
<!-- Created with Inkscape (http://www.inkscape.org/) -->

<svg
   xmlns:dc="http://purl.org/dc/elements/1.1/"
   xmlns:cc="http://creativecommons.org/ns#"
   xmlns:rdf="http://www.w3.org/1999/02/22-rdf-syntax-ns#"
   xmlns:svg="http://www.w3.org/2000/svg"
   xmlns="http://www.w3.org/2000/svg"
   xmlns:sodipodi="http://sodipodi.sourceforge.net/DTD/sodipodi-0.dtd"
   xmlns:inkscape="http://www.inkscape.org/namespaces/inkscape"
   version="1.1"
   id="svg2"
   xml:space="preserve"
   width="700"
   height="700"
   viewBox="0 0 700 700"
   sodipodi:docname="cessna-logo.svg"
   inkscape:export-filename="G:\Users\suitedoalex\sites\cessna-logo-0.png"
   inkscape:export-xdpi="561.73999"
   inkscape:export-ydpi="561.73999"
   inkscape:version="0.92.4 (5da689c313, 2019-01-14)"><metadata
     id="metadata8"><rdf:RDF><cc:Work
         rdf:about=""><dc:format>image/svg+xml</dc:format><dc:type
           rdf:resource="http://purl.org/dc/dcmitype/StillImage" /><dc:title></dc:title></cc:Work></rdf:RDF></metadata><defs
     id="defs6"><clipPath
       clipPathUnits="userSpaceOnUse"
       id="clipPath18"><path
         d="M 0,0 H 792 V 612 H 0 Z"
         id="path16"
         inkscape:connector-curvature="0" /></clipPath><clipPath
       clipPathUnits="userSpaceOnUse"
       id="clipPath32"><path
         d="M 0,0 H 792 V 612 H 0 Z"
         id="path30"
         inkscape:connector-curvature="0" /></clipPath><clipPath
       clipPathUnits="userSpaceOnUse"
       id="clipPath40"><path
         d="M -17,230.144 H 822.208 V -10 H -17 Z"
         id="path38"
         inkscape:connector-curvature="0" /></clipPath><linearGradient
       x1="0"
       y1="0"
       x2="1"
       y2="0"
       gradientUnits="userSpaceOnUse"
       gradientTransform="matrix(0,239.65598,239.65598,0,278.86494,-19.636749)"
       spreadMethod="pad"
       id="linearGradient50"><stop
         style="stop-opacity:1;stop-color:#ffffff"
         offset="0"
         id="stop46" /><stop
         style="stop-opacity:0;stop-color:#ffffff"
         offset="1"
         id="stop48" /></linearGradient><mask
       maskUnits="userSpaceOnUse"
       x="0"
       y="0"
       width="1"
       height="1"
       id="mask52"><g
         id="g62"><g
           id="g60"><g
             id="g58"><g
               id="g56"><path
                 d="M -32768,32767 H 32767 V -32768 H -32768 Z"
                 style="fill:url(#linearGradient50);stroke:none"
                 id="path54"
                 inkscape:connector-curvature="0" /></g></g></g></g></mask><clipPath
       clipPathUnits="userSpaceOnUse"
       id="clipPath66"><path
         d="M -17,230.144 H 822.208 V -10 H -17 Z"
         id="path64"
         inkscape:connector-curvature="0" /></clipPath><clipPath
       clipPathUnits="userSpaceOnUse"
       id="clipPath96"><path
         d="M 0,0 H 792 V 612 H 0 Z"
         id="path94"
         inkscape:connector-curvature="0" /></clipPath><clipPath
       clipPathUnits="userSpaceOnUse"
       id="clipPath108"><path
         d="M 663.047,33.008 H 748 v 82.946 h -84.953 z"
         id="path106"
         inkscape:connector-curvature="0" /></clipPath><clipPath
       clipPathUnits="userSpaceOnUse"
       id="clipPath108-4"><path
         d="M 663.047,33.008 H 748 v 82.946 h -84.953 z"
         id="path106-9"
         inkscape:connector-curvature="0" /></clipPath></defs><sodipodi:namedview
     pagecolor="#ffffff"
     bordercolor="#666666"
     borderopacity="1"
     objecttolerance="10"
     gridtolerance="10"
     guidetolerance="10"
     inkscape:pageopacity="0"
     inkscape:pageshadow="2"
     inkscape:window-width="1600"
     inkscape:window-height="837"
     id="namedview4"
     showgrid="false"
     inkscape:zoom="0.57843137"
     inkscape:cx="349.46887"
     inkscape:cy="278.90829"
     inkscape:window-x="-8"
     inkscape:window-y="-8"
     inkscape:window-maximized="1"
     inkscape:current-layer="g10" /><g
     id="g10"
     inkscape:groupmode="layer"
     inkscape:label="Grand_Caravan_EX_Brochure"
     transform="matrix(1.3333333,0,0,-1.3333333,0,700)"><g
       transform="matrix(5.5977709,0,0,5.5977709,-3688.0386,-215.79453)"
       id="g102"
       inkscape:export-filename="G:\Users\suitedoalex\sites\cessna-logo-4.png"
       inkscape:export-xdpi="81.432632"
       inkscape:export-ydpi="81.432632"><g
         id="g104"
         clip-path="url(#clipPath108-4)"><g
           id="g170"
           transform="translate(728.094,115.9529)"><path
             d="m 0,0 h -41.109 v -13.147 h 22.981 c 2.846,0 6.502,1.078 9.348,4.061 z"
             style="fill:#0e87d2;fill-opacity:1;fill-rule:evenodd;stroke:none"
             id="path172"
             inkscape:connector-curvature="0" /></g><g
           id="g174"
           transform="translate(687.0073,95.9965)"><path
             d="M 0,0 H 21.362 L 12.841,-8.687 C 10.422,-11.128 7.303,-13.29 2.7,-13.29 H 0 Z"
             style="fill:#ed1441;fill-opacity:1;fill-rule:evenodd;stroke:none"
             id="path176"
             inkscape:connector-curvature="0" /></g><g
           id="g178"
           transform="translate(713.2115,69.8889)"><path
             d="m 0,0 v 21.27 l -8.928,-9.086 c -1.476,-1.621 -3.779,-3.521 -3.779,-7.866 V 0 Z"
             style="fill:#ed1441;fill-opacity:1;fill-rule:evenodd;stroke:none"
             id="path180"
             inkscape:connector-curvature="0" /></g><g
           id="g182"
           transform="translate(720.064,69.8389)"><path
             d="m 0,0 v 23.571 c 0,2.445 0,4.607 2.56,7.305 L 12.656,41.325 V 0 Z"
             style="fill:#0e87d2;fill-opacity:1;fill-rule:evenodd;stroke:none"
             id="path184"
             inkscape:connector-curvature="0" /></g><g
           id="g186"
           transform="translate(730.2493,59.1826)"
           style="fill:#030303;fill-opacity:1"><path
             d="m 0,0 c 0,-0.587 -0.09,-2.322 -2.253,-2.322 -0.887,0 -1.831,0.259 -1.831,1.29 0,1.032 0.825,1.481 1.414,1.689 0.515,0.259 2.138,0.492 2.67,0.492 z m -38.338,4.366 c 1.365,0 1.948,-0.752 2.21,-2.158 h -4.483 c 0.024,0.797 0.542,2.158 2.273,2.158 M -1.59,6.623 c -2.255,0 -3.975,-0.965 -4.085,-3.311 h 2.159 c 0.071,0.844 0.794,1.549 1.855,1.549 0.96,0 1.761,-0.165 1.736,-1.364 C 0.056,2.652 -0.96,2.468 -2.67,2.208 -4.129,2.022 -6.028,1.198 -6.568,-0.305 v 2.61 c 0,2.486 -0.498,4.13 -3.428,4.149 -0.939,0 -1.999,-0.444 -2.537,-0.935 h -0.074 l -0.322,0.658 h -2.373 v -6.246 c -0.283,1.409 -1.598,1.903 -3.028,2.23 -1.577,0.376 -3.314,0.491 -3.337,1.503 -0.022,1.032 1.13,1.084 1.739,1.084 0.983,0 1.759,-0.522 2.017,-1.507 h 2.157 c -0.205,2.467 -2.018,3.403 -4.082,3.403 -2.18,0 -4.224,-1.076 -4.175,-3.261 0,-1.786 1.38,-2.514 2.983,-2.863 1.99,-0.427 3.117,-0.73 3.117,-1.552 0,-0.988 -1.012,-1.409 -1.809,-1.409 -1.077,0 -2.108,0.707 -2.555,1.809 h -2.02 c -0.023,1.83 -1.48,2.416 -3.099,2.793 -1.576,0.376 -3.312,0.491 -3.331,1.503 -0.027,1.032 1.127,1.084 1.736,1.084 1.008,0 1.76,-0.522 2.017,-1.507 h 2.16 c -0.211,2.467 -2.018,3.403 -4.087,3.403 -2.184,0 -4.223,-1.076 -4.178,-3.261 0.02,-1.786 1.385,-2.514 2.982,-2.863 1.998,-0.427 3.152,-0.73 3.152,-1.552 0,-0.988 -1.038,-1.409 -1.834,-1.409 -1.081,0 -2.117,0.707 -2.563,1.809 h -2.115 v 0.022 h -2.437 c -0.306,-0.703 -1.173,-1.479 -2.302,-1.479 -1.526,0 -2.393,0.799 -2.463,2.559 h 7.063 c 0.19,3.101 -1.266,5.984 -4.694,5.984 -3.052,0 -5.14,-2.298 -5.14,-5.329 0,-0.114 0,-0.232 0.023,-0.352 h -2.443 c -0.492,-1.334 -1.336,-2.651 -3.685,-2.651 -2.745,0.026 -3.779,2.564 -3.779,4.883 0,2.419 1.034,5.005 3.779,5.005 2.489,0 3.075,-1.224 3.403,-2.302 h 2.653 c -0.301,2.838 -2.746,4.434 -6.056,4.434 -3.801,0 -6.572,-3.001 -6.572,-7.137 0,-4.037 2.577,-7.253 6.572,-7.253 3.24,0 5.449,1.832 6.175,4.365 0.399,-2.582 2.249,-4.296 5.07,-4.296 2.183,0 3.871,0.915 4.721,3.217 0.747,-2.181 2.439,-3.217 4.79,-3.217 2.066,0 4.084,0.707 4.439,2.816 0.796,-1.901 2.415,-2.816 4.595,-2.816 2.091,0 4.093,0.707 4.441,2.794 v -2.534 h 2.513 v 5.306 c 0,2.041 0.633,2.885 1.92,2.885 1.295,0 1.664,-0.82 1.664,-2.488 v -5.703 h 2.637 v 1.974 c 0.401,-1.18 1.643,-2.142 3.189,-2.142 1.224,0 2.678,0.236 3.568,1.154 0.026,-0.331 0.095,-0.654 0.19,-0.986 l 2.16,0.023 v 7.49 c 0,2.416 -2.11,3.029 -4.129,3.029"
             style="fill:#030303;fill-opacity:1;fill-rule:evenodd;stroke:none"
             id="path188"
             inkscape:connector-curvature="0" /></g><g
           id="g190"
           transform="translate(735.7272,112.8192)"><path
             d="m 0,0 h 0.215 c 0.131,0 0.159,0.006 0.2,0.034 0.048,0.031 0.083,0.101 0.083,0.165 0,0.055 -0.027,0.111 -0.065,0.146 -0.045,0.037 -0.072,0.04 -0.226,0.04 L 0,0.385 Z m 0,-0.909 h -0.412 v 1.583 h 0.71 c 0.214,0 0.333,-0.027 0.439,-0.108 0.11,-0.078 0.181,-0.225 0.181,-0.371 0,-0.185 -0.092,-0.33 -0.279,-0.407 L 0.941,-0.909 H 0.491 L 0.235,-0.28 H 0 Z m -0.868,0.791 c 0,-0.62 0.498,-1.127 1.111,-1.127 0.609,0 1.101,0.507 1.101,1.127 0,0.618 -0.492,1.127 -1.084,1.127 -0.636,0 -1.128,-0.493 -1.128,-1.127 m 2.465,-0.017 c 0,-0.73 -0.614,-1.344 -1.354,-1.344 -0.755,0 -1.364,0.611 -1.364,1.361 0,0.751 0.609,1.361 1.36,1.361 0.759,0 1.358,-0.61 1.358,-1.378"
             style="fill:#0e87d2;fill-opacity:1;fill-rule:nonzero;stroke:none"
             id="path192"
             inkscape:connector-curvature="0" /></g></g></g></g></svg>